<svg width="25" height="27" viewBox="0 0 25 27" fill="none" xmlns="http://www.w3.org/2000/svg">
<g clip-path="url(#clip0_591_1226)">
<path d="M19.7917 13.6718C19.7917 13.948 19.5671 14.17 19.2916 14.189C15.4942 14.45 12.5 17.6614 12.5 21.5934C12.5 21.7566 12.5064 21.9177 12.5183 22.0775C12.5408 22.3821 12.3089 22.6536 12.0034 22.6536H3.625C3.34886 22.6536 3.125 22.4298 3.125 22.1536V21.7979C3.125 21.6669 3.17647 21.541 3.26834 21.4475L5.06499 19.6189C5.15686 19.5254 5.20833 19.3995 5.20833 19.2684V13.1116C5.20833 9.92954 7.19043 7.11517 10.1242 6.09251C10.2966 6.03242 10.4167 5.87258 10.4167 5.69003C10.4167 4.52378 11.3542 3.56958 12.5 3.56958C13.6458 3.56958 14.5833 4.52378 14.5833 5.69003C14.5833 5.87258 14.7034 6.03242 14.8758 6.09251C17.8096 7.11517 19.7917 9.92954 19.7917 13.1116V13.6718ZM10.9167 23.7139C10.6405 23.7139 10.4109 23.9407 10.4744 24.2094C10.5634 24.5864 10.7531 24.9346 11.0269 25.2133C11.4176 25.6109 11.9475 25.8343 12.5 25.8343C12.7319 25.8343 12.9535 25.7929 13.1612 25.7199C13.4191 25.6291 13.4891 25.3182 13.3651 25.0746C13.1995 24.7491 13.057 24.4085 12.9302 24.0566C12.8569 23.8532 12.6663 23.7139 12.4501 23.7139H10.9167ZM24.7604 22.9929C24.8646 23.0671 24.8854 23.2156 24.8229 23.3322L23.7813 25.1664C23.737 25.264 23.6561 25.2925 23.5719 25.3008C23.5041 25.3075 23.4365 25.2903 23.3739 25.2633L22.4283 24.8552C22.2661 24.7852 22.0799 24.8073 21.9345 24.9075C21.8065 24.9957 21.6797 25.0767 21.5453 25.1496C21.3915 25.233 21.2767 25.3783 21.2522 25.5516L21.0938 26.6719C21.0729 26.7991 20.9688 26.8945 20.8333 26.8945H18.75C18.625 26.8945 18.5104 26.7991 18.4896 26.6719L18.3403 25.558C18.3167 25.3812 18.1991 25.2332 18.0417 25.1494C17.9057 25.077 17.7788 24.9966 17.6514 24.9091C17.5044 24.8082 17.3163 24.7866 17.1533 24.8587L16.2424 25.2615C16.1787 25.2897 16.1097 25.3066 16.0403 25.3018C15.9405 25.295 15.8484 25.2685 15.8021 25.1664L14.7604 23.3322C14.7313 23.2768 14.7217 23.213 14.733 23.1514C14.7444 23.0897 14.7761 23.0338 14.8229 22.9929L15.7076 22.2963C15.844 22.1889 15.9123 22.0188 15.8973 21.8458C15.8901 21.7626 15.8854 21.6792 15.8854 21.5934C15.8854 21.5076 15.8901 21.4243 15.8973 21.341C15.9123 21.1681 15.844 20.9979 15.7076 20.8905L14.8229 20.1939C14.7292 20.1197 14.6979 20.0031 14.7604 19.8546L15.8021 18.0311C15.8592 17.9245 15.9859 17.8887 16.1107 17.9076C16.1343 17.9112 16.157 17.9188 16.1792 17.9275L17.1839 18.3215C17.3304 18.3789 17.4952 18.3636 17.6285 18.2801C17.7602 18.1976 17.8907 18.1179 18.0305 18.0465C18.1938 17.9631 18.3171 17.8118 18.3413 17.63L18.4896 16.5149C18.5104 16.3877 18.625 16.2923 18.75 16.2923H20.8333C20.9688 16.2923 21.0729 16.3877 21.0938 16.5149L21.2511 17.6362C21.2762 17.8147 21.3968 17.9634 21.5567 18.0465C21.6947 18.1183 21.8249 18.1984 21.957 18.2813C22.0891 18.3643 22.2521 18.38 22.3977 18.3243L23.4688 17.9144C23.5833 17.8826 23.7188 17.9144 23.7813 18.0311L24.8229 19.8546C24.8854 20.0031 24.8646 20.1197 24.7604 20.1939L23.884 20.8906C23.7488 20.998 23.6807 21.1675 23.6901 21.3399C23.6994 21.5088 23.6994 21.6781 23.6901 21.8469C23.6807 22.0193 23.7488 22.1888 23.884 22.2963L24.7604 22.9929ZM21.6146 21.5934C21.6146 20.565 20.8021 19.738 19.7917 19.738C18.7813 19.738 17.9688 20.565 17.9688 21.5934C17.9688 22.6218 18.7917 23.4488 19.7917 23.4488C20.7917 23.4488 21.6146 22.6218 21.6146 21.5934Z" fill="#d0d0d0"/>
</g>
<defs>
<clipPath id="clip0_591_1226">
<rect width="25" height="25.4454" fill="#d0d0d0" transform="translate(0 0.600952)"/>
</clipPath>
</defs>
</svg>
