<svg width="19" height="22" viewBox="0 0 19 22" fill="none" xmlns="http://www.w3.org/2000/svg">
<path d="M12.6548 19.125C11.8135 20.375 10.7619 21 9.5 21C7.60713 21 7.18691 20.375 6.34521 19.125M15.9168 17.25H3.08315C2.71447 17.2502 2.35235 17.1534 2.03381 16.9695C1.71526 16.7856 1.45172 16.5213 1.27012 16.2034C1.08851 15.8856 0.995359 15.5257 1.00018 15.1605C1.005 14.7954 1.10761 14.438 1.29754 14.125C2.53756 12.081 3.19195 9.74094 3.19042 7.35625V6C3.19042 4.67392 3.72222 3.40215 4.66884 2.46447C5.61547 1.52678 6.89936 1 8.23808 1H10.7619C12.1006 1 13.3845 1.52678 14.3312 2.46447C15.2778 3.40215 15.8096 4.67392 15.8096 6V7.35625C15.8096 9.74 16.4633 12.0812 17.7025 14.125C17.8924 14.438 17.995 14.7954 17.9998 15.1605C18.0046 15.5257 17.9115 15.8856 17.7299 16.2034C17.5483 16.5213 17.2847 16.7856 16.9662 16.9695C16.6477 17.1534 16.2855 17.2502 15.9168 17.25Z" stroke="#d0d0d0" stroke-width="1.5" stroke-linecap="round" stroke-linejoin="round"/>
</svg>
