<svg width="19" height="20" viewBox="0 0 19 20" fill="none" xmlns="http://www.w3.org/2000/svg">
<path d="M3.99988 5.5H2.99988C2.46944 5.5 1.96074 5.71071 1.58566 6.08579C1.21059 6.46086 0.999878 6.96957 0.999878 7.5V16.5C0.999878 17.0304 1.21059 17.5391 1.58566 17.9142C1.96074 18.2893 2.46944 18.5 2.99988 18.5H11.9999C12.5303 18.5 13.039 18.2893 13.4141 17.9142C13.7892 17.5391 13.9999 17.0304 13.9999 16.5V15.5" stroke="#5384AF" stroke-width="2" stroke-linecap="round" stroke-linejoin="round"/>
<path d="M12.9999 3.50011L15.9999 6.50011M17.3849 5.08511C17.7787 4.69126 18 4.15709 18 3.60011C18 3.04312 17.7787 2.50895 17.3849 2.11511C16.991 1.72126 16.4569 1.5 15.8999 1.5C15.3429 1.5 14.8087 1.72126 14.4149 2.11511L5.99988 10.5001V13.5001H8.99988L17.3849 5.08511Z" stroke="#5384AF" stroke-width="2" stroke-linecap="round" stroke-linejoin="round"/>
</svg>
