<svg width="340" height="168" viewBox="0 0 340 168" fill="none" xmlns="http://www.w3.org/2000/svg">
<g clip-path="url(#clip0_222_1312)">
<path d="M81.1872 36.1153C81.9944 28.4081 88.7298 24.1789 96.0775 26.7109C110.773 31.8026 129.588 41.7357 144.005 61.0454C166.66 91.3455 164.489 125.624 160.148 146.075C158.645 153.17 150.935 157.121 144.45 153.921C130.45 147.049 113.612 135.446 100.364 116.303C80.2688 87.2832 79.1276 55.7867 81.1872 36.0875V36.1153Z" fill="#67C44D"/>
<path d="M84.499 28.9647C85 28.4917 85.5288 28.0465 86.0855 27.6848C85.501 28.0465 84.9722 28.4917 84.499 28.9647Z" fill="#67C44D"/>
<path d="M71.6963 123.677C75.398 118.335 78.4874 112.881 81.1593 107.456C68.0781 80.7447 67.1318 53.9504 69.1357 34.8633C69.6646 29.7437 71.752 25.2641 74.7579 21.7305C58.1976 27.7404 37.6574 39.009 21.7094 60.3499C18.4809 64.6904 15.6698 69.0865 13.2762 73.5384C12.0794 75.7643 10.9661 77.9902 9.96417 80.2161C-0.19464 102.531 -1.11311 125.124 0.835158 143.042C1.41964 148.412 2.25461 153.365 3.20091 157.761C3.39573 158.679 3.70189 159.542 4.06371 160.349C4.17504 160.599 4.3142 160.822 4.42553 161.072C4.73169 161.656 5.06568 162.185 5.4275 162.686C5.59449 162.908 5.73365 163.131 5.90065 163.326C6.3738 163.91 6.90261 164.439 7.48709 164.939C7.57059 164.995 7.62625 165.079 7.70975 165.162C8.37772 165.691 9.10137 166.164 9.82501 166.553C10.0477 166.665 10.2425 166.748 10.4652 166.859C11.0218 167.11 11.6063 167.332 12.2186 167.527C12.4691 167.611 12.7196 167.666 12.9979 167.722C13.6659 167.861 14.3617 167.972 15.0297 168C15.1967 168 15.3636 168.056 15.5306 168.056C16.143 168.056 16.7831 167.972 17.4232 167.861C17.7294 167.805 18.0634 167.833 18.3695 167.75C19.3158 167.527 20.2343 167.221 21.1528 166.776C37.212 158.902 56.472 145.63 71.6685 123.705L71.6963 123.677Z" fill="#67C44D"/>
<path d="M81.187 36.1155C81.2705 35.2251 81.4653 34.4182 81.7158 33.6392C81.4653 34.4182 81.2983 35.2529 81.187 36.1155Z" fill="#67C44D"/>
<path d="M91.207 26.0432C91.4019 26.0432 91.5967 26.0432 91.7637 26.0432C91.7637 26.0432 91.7637 26.0154 91.7358 25.9875C91.5688 25.9875 91.374 26.0154 91.207 26.0432Z" fill="#67C44D"/>
<path d="M258.229 36.1153C259.036 28.4081 265.771 24.1789 273.119 26.7109C287.815 31.8026 306.629 41.7357 321.046 61.0454C343.702 91.3455 341.531 125.624 337.189 146.075C335.686 153.17 327.977 157.121 321.492 153.921C307.492 147.049 290.653 135.446 277.405 116.303C257.31 87.2832 256.169 55.7867 258.229 36.0875V36.1153Z" fill="#67C44D"/>
<path d="M268.248 26.0432C268.443 26.0432 268.638 26.0432 268.805 26.0432C268.805 26.0432 268.805 26.0154 268.777 25.9875C268.61 25.9875 268.415 26.0154 268.248 26.0432Z" fill="#67C44D"/>
<path d="M248.71 123.677C252.412 118.335 255.501 112.881 258.173 107.456C245.092 80.7447 244.145 53.9504 246.149 34.8633C246.678 29.7437 248.738 25.2641 251.771 21.7305C248.098 23.066 244.257 24.5963 240.249 26.5162C237.939 27.6291 235.573 28.8534 233.207 30.1889C221.323 36.8944 209.049 46.5215 198.723 60.3499C195.494 64.6904 192.683 69.0865 190.29 73.5384C189.093 75.7643 187.98 77.9902 186.978 80.2161C182.942 89.1475 180.354 98.1068 178.851 106.816C175.455 126.376 177.459 144.572 180.27 157.761C180.465 158.679 180.771 159.542 181.133 160.349C181.244 160.599 181.383 160.822 181.495 161.072C181.801 161.656 182.135 162.185 182.497 162.686C182.664 162.908 182.803 163.131 182.97 163.326C183.443 163.91 183.972 164.439 184.556 164.939C184.64 164.995 184.695 165.106 184.779 165.162C185.447 165.691 186.171 166.164 186.894 166.553C187.117 166.665 187.312 166.748 187.534 166.859C188.091 167.11 188.676 167.332 189.288 167.527C189.538 167.611 189.789 167.666 190.067 167.722C190.735 167.861 191.431 167.972 192.099 168C192.266 168 192.433 168.056 192.6 168.056C193.212 168.056 193.852 167.972 194.492 167.861C194.799 167.805 195.133 167.833 195.439 167.75C196.385 167.527 197.304 167.221 198.222 166.776C208.242 161.851 219.542 154.812 230.313 144.879C236.77 138.924 243.032 131.913 248.738 123.705L248.71 123.677Z" fill="#67C44D"/>
<path d="M261.541 28.9647C262.042 28.4917 262.57 28.0465 263.127 27.6848C262.542 28.0465 262.014 28.4917 261.541 28.9647Z" fill="#67C44D"/>
<path d="M258.229 36.1155C258.312 35.2251 258.507 34.4182 258.757 33.6113C258.507 34.3904 258.34 35.2251 258.229 36.1155Z" fill="#67C44D"/>
<path d="M22.5167 40.1497H23.296C39.9119 23.5667 58.6153 14.3849 72.615 9.54356C75.5095 8.5419 78.4876 8.04107 81.4378 8.04107C87.9784 8.04107 93.8232 10.573 98.1929 14.7744C98.8052 14.9414 99.4453 15.0527 100.058 15.2474C111.831 19.3097 127.389 26.7943 141.528 40.1497H200.338C216.954 23.5667 235.657 14.3849 249.657 9.54356C252.551 8.5419 255.529 8.04107 258.479 8.04107C265.02 8.04107 270.865 10.573 275.234 14.7744C275.847 14.9414 276.487 15.0527 277.099 15.2474C287.509 18.8367 300.896 25.2083 313.643 35.837V3.89533C313.643 1.7529 309.051 0 303.401 0H22.5167C16.8668 0 12.2744 1.7529 12.2744 3.89533V36.2544C12.2744 38.3968 16.8668 40.1497 22.5167 40.1497Z" fill="#604538"/>
</g>
<defs>
<clipPath id="clip0_222_1312">
<rect width="340" height="168" fill="white"/>
</clipPath>
</defs>
</svg>
