<svg width="182" height="63" viewBox="0 0 182 63" fill="none" xmlns="http://www.w3.org/2000/svg">
<path d="M26.1647 28.0738V9.77775C26.1647 9.37656 26.5189 9.05934 26.944 9.05934H32.7029V28.0738H26.1647ZM40.0508 28.0738C39.6966 28.0738 39.4132 27.8126 39.4132 27.486V16.9618C39.4132 16.0195 39.0994 15.2824 38.4618 14.7506C37.8242 14.2188 37.0448 13.9482 36.1036 13.9482C35.4558 13.9482 34.8688 14.0695 34.3627 14.3214C33.8567 14.5734 33.4518 14.9186 33.1482 15.3571C32.8547 15.8049 32.7029 16.3367 32.7029 16.9618L30.203 15.9075C30.203 14.4241 30.5673 13.1365 31.2859 12.0543C32.0045 10.972 32.966 10.1416 34.1704 9.55383C35.3749 8.96604 36.7513 8.67681 38.31 8.67681C39.7269 8.67681 41.0022 8.97537 42.156 9.57249C43.2997 10.1696 44.2207 11.0093 44.919 12.0729C45.6073 13.1459 45.9615 14.4241 45.9615 15.9075V27.486C45.9615 27.8126 45.6781 28.0738 45.3239 28.0738H40.0609H40.0508ZM53.2082 28.0738C52.8539 28.0738 52.5706 27.8126 52.5706 27.486V16.9618C52.5706 16.0195 52.2568 15.2824 51.6192 14.7506C50.9816 14.2188 50.2123 13.9482 49.3015 13.9482C48.6739 13.9482 48.1072 14.0695 47.5809 14.3214C47.0546 14.5734 46.6497 14.9186 46.3663 15.3571C46.0829 15.8049 45.9413 16.3367 45.9413 16.9618L42.1661 16.4953C42.2471 14.8812 42.6721 13.4817 43.4413 12.3062C44.2105 11.1306 45.2429 10.2349 46.5384 9.60981C47.844 8.9847 49.3015 8.66748 50.9107 8.66748C52.52 8.66748 53.8661 8.97537 55.1109 9.59115C56.3558 10.2069 57.3275 11.0746 58.0359 12.1942C58.7444 13.3138 59.0987 14.676 59.0987 16.2621V27.4954C59.0987 27.8219 58.8153 28.0832 58.461 28.0832H53.1981L53.2082 28.0738Z" fill="#604538"/>
<path d="M71.8418 28.4659C69.9694 28.4659 68.2893 28.0274 66.7914 27.1597C65.2934 26.2827 64.1093 25.1164 63.249 23.633C62.3887 22.1588 61.9535 20.4701 61.9535 18.5668C61.9535 16.6635 62.3887 14.9561 63.249 13.4633C64.1093 11.9612 65.2833 10.7856 66.7711 9.94588C68.2589 9.09685 69.9491 8.677 71.8418 8.677C73.2284 8.677 74.4834 8.92891 75.5967 9.4234C76.71 9.91789 77.631 10.6083 78.3395 11.476C79.048 12.353 79.4427 13.3513 79.5237 14.4709V22.6906C79.4427 23.8102 79.048 24.8085 78.3598 25.6855C77.6614 26.5626 76.7606 27.2437 75.6473 27.7381C74.534 28.2326 73.2587 28.4845 71.8519 28.4845L71.8418 28.4659ZM73.198 23.0265C74.5846 23.0265 75.6979 22.6067 76.5278 21.7763C77.3578 20.9459 77.7829 19.8636 77.7829 18.5295C77.7829 17.6711 77.6007 16.906 77.2262 16.2436C76.8618 15.5812 76.3153 15.0587 75.6169 14.6762C74.9085 14.2936 74.0988 14.107 73.198 14.107C72.2972 14.107 71.5381 14.2936 70.8398 14.6762C70.1414 15.0587 69.5949 15.5812 69.1799 16.2623C68.765 16.9434 68.5626 17.7084 68.5626 18.5668C68.5626 19.4251 68.765 20.1995 69.1799 20.8713C69.5848 21.5524 70.1414 22.0748 70.8398 22.4574C71.528 22.8399 72.3175 23.0265 73.198 23.0265ZM77.5298 28.074V22.9519L78.5014 18.2962L77.5298 13.7152V9.05953H83.9365V28.074H77.5298Z" fill="#604538"/>
<path d="M88.48 28.0738V9.9177C88.48 9.44187 88.8949 9.05934 89.4111 9.05934H95.0182V28.0738H88.48ZM95.0182 17.6709L92.3057 15.7116C92.8422 13.4724 93.7531 11.737 95.0486 10.5055C96.3339 9.28326 98.095 8.66748 100.332 8.66748C101.324 8.66748 102.194 8.80743 102.943 9.078C103.692 9.34857 104.35 9.75909 104.917 10.3096L101.05 14.8439C100.797 14.5827 100.453 14.3774 100.028 14.2188C99.603 14.0602 99.1172 13.9856 98.5808 13.9856C97.4776 13.9856 96.6072 14.2935 95.9696 14.9092C95.332 15.525 95.0182 16.4394 95.0182 17.6709Z" fill="#604538"/>
<path d="M118.672 5.3367V18.9211C118.672 19.201 118.429 19.425 118.125 19.425H112.538C112.235 19.425 111.992 19.201 111.992 18.9211V5.3367C111.992 5.05681 112.235 4.83289 112.538 4.83289H118.125C118.429 4.83289 118.672 5.05681 118.672 5.3367Z" fill="#604538"/>
<path d="M122.7 15.2077H107.963C107.66 15.2077 107.417 14.9838 107.417 14.7039V9.55375C107.417 9.27385 107.66 9.04993 107.963 9.04993H122.7C123.003 9.04993 123.246 9.27385 123.246 9.55375V14.7039C123.246 14.9838 123.003 15.2077 122.7 15.2077Z" fill="#604538"/>
<path d="M19.8394 61.0556L12.117 34.6517C11.9854 34.2132 12.3498 33.7841 12.8356 33.7841H16.9751C17.3192 33.7841 17.6127 33.9986 17.6937 34.2972L23.5639 55.5136H21.3575L25.8918 37.516C26.0537 36.8629 26.6812 36.4058 27.4099 36.4058H31.4685C32.1972 36.4058 32.8247 36.8629 32.9866 37.516L37.5512 55.5136H35.3448L41.2151 34.2972C41.296 33.9893 41.5997 33.7841 41.9337 33.7841H46.0428C46.5286 33.7841 46.893 34.2132 46.7614 34.6517L39.039 61.0556C38.867 61.634 38.3002 62.0446 37.6423 62.0446H35.4258C34.7578 62.0446 34.1809 61.6247 34.019 61.0369L27.3289 37.8146H31.509L24.8594 61.0369C24.6975 61.634 24.1206 62.0446 23.4526 62.0446H21.2361C20.5782 62.0446 20.0114 61.6434 19.8394 61.0556Z" fill="#604538"/>
<path d="M55.5866 62.044C53.2993 62.044 51.275 61.6054 49.514 60.7471C47.7529 59.8794 46.3562 58.6758 45.3441 57.1271C44.332 55.5783 43.8259 53.8149 43.8259 51.8463C43.8259 49.8777 44.3219 48.1983 45.3036 46.6682C46.2853 45.138 47.6315 43.9251 49.3419 43.0481C51.0524 42.1711 52.9754 41.7233 55.1109 41.7233C57.2465 41.7233 59.0784 42.1338 60.6674 42.9642C62.2564 43.7945 63.5215 44.9421 64.4426 46.4069C65.3636 47.8717 65.8291 49.5511 65.8291 51.4451C65.8291 51.8183 65.8089 52.2008 65.7684 52.5834C65.7279 52.9752 65.6267 53.4044 65.485 53.8802L47.3379 53.9642V49.7191L62.6208 49.6351L59.7565 51.4358C59.7261 50.3442 59.544 49.4298 59.1897 48.6928C58.8456 47.9557 58.3294 47.3959 57.6513 46.9947C56.9732 46.5935 56.1534 46.3976 55.202 46.3976C54.1595 46.3976 53.2588 46.6215 52.4896 47.0787C51.7204 47.5358 51.1333 48.1609 50.7083 48.9633C50.2933 49.7657 50.0808 50.7267 50.0808 51.8463C50.0808 52.9659 50.3034 53.9455 50.7487 54.7666C51.1941 55.5969 51.8317 56.2314 52.6616 56.6699C53.4814 57.1084 54.4632 57.3323 55.5967 57.3323C56.6088 57.3323 57.54 57.1644 58.38 56.8285C58.795 56.6606 59.1897 56.4553 59.5642 56.2034C60.2119 55.7649 61.0824 55.7742 61.6491 56.2874L64.2806 58.6852C63.2381 59.8328 61.9831 60.6818 60.5055 61.2229C59.0278 61.7734 57.3983 62.044 55.5967 62.044H55.5866Z" fill="#604538"/>
<path d="M77.7723 62.0068C75.8594 62.0068 74.1389 61.559 72.6106 60.6633C71.0722 59.7676 69.8678 58.5734 68.9872 57.0619C68.1067 55.5504 67.6614 53.8244 67.6614 51.8838C67.6614 49.9431 68.1067 48.1984 68.9872 46.659C69.8678 45.1289 71.0722 43.9253 72.5903 43.0576C74.1085 42.1899 75.8392 41.7607 77.7825 41.7607C79.1994 41.7607 80.4848 42.0126 81.6285 42.5165C82.7721 43.0203 83.7033 43.72 84.432 44.6157C85.1506 45.5114 85.5656 46.5284 85.6465 47.6759V56.0823C85.5554 57.2298 85.1607 58.2468 84.4522 59.1425C83.7438 60.0382 82.8126 60.7379 81.669 61.2417C80.5253 61.7456 79.2298 61.9975 77.7825 61.9975L77.7723 62.0068ZM79.1589 56.4461C80.5759 56.4461 81.7094 56.0169 82.5697 55.1679C83.4199 54.3096 83.8551 53.2086 83.8551 51.8464C83.8551 50.9694 83.6628 50.1857 83.2883 49.5046C82.9138 48.8235 82.3572 48.2917 81.6386 47.8999C80.9099 47.5173 80.0901 47.3214 79.169 47.3214C78.248 47.3214 77.4687 47.5173 76.7602 47.8999C76.0517 48.2824 75.485 48.8235 75.07 49.5233C74.655 50.2137 74.4425 51.0067 74.4425 51.8838C74.4425 52.7608 74.655 53.5538 75.07 54.2442C75.485 54.9347 76.0517 55.4758 76.7602 55.8677C77.4687 56.2502 78.2683 56.4461 79.169 56.4461H79.1589ZM83.5919 61.6056V56.3622L84.5939 51.6039L83.5919 46.9202V42.1619H90.1504V61.6149H83.5919V61.6056Z" fill="#604538"/>
<path d="M93.0549 46.7714V42.7782C93.0549 42.433 93.3586 42.1531 93.733 42.1531H108.571C108.945 42.1531 109.249 42.433 109.249 42.7782V46.7714C109.249 47.1166 108.945 47.3965 108.571 47.3965H93.733C93.3586 47.3965 93.0549 47.1166 93.0549 46.7714ZM97.7815 60.9809V37.74C97.7815 37.3948 98.0851 37.1149 98.4596 37.1149H103.783C104.158 37.1149 104.461 37.3948 104.461 37.74V60.9809C104.461 61.3262 104.158 61.6061 103.783 61.6061H98.4596C98.0851 61.6061 97.7815 61.3262 97.7815 60.9809Z" fill="#604538"/>
<path d="M111.992 61.2232V22.905C111.992 22.6904 112.174 22.5225 112.407 22.5225H118.267C118.5 22.5225 118.682 22.6904 118.682 22.905V61.2232C118.682 61.4378 118.5 61.6057 118.267 61.6057H112.407C112.174 61.6057 111.992 61.4378 111.992 61.2232ZM126.384 61.6057C126.151 61.6057 125.969 61.4378 125.969 61.2232V50.5217C125.969 49.5327 125.625 48.7304 124.926 48.0959C124.228 47.4708 123.368 47.1536 122.325 47.1536C121.627 47.1536 121.01 47.2935 120.463 47.5734C119.916 47.8533 119.481 48.2452 119.157 48.7584C118.925 49.1316 118.783 49.5421 118.712 49.9899C118.682 50.2418 118.368 50.3818 118.125 50.2698L116.354 49.4674C116.212 49.4021 116.111 49.2622 116.121 49.1036C116.162 47.6854 116.516 46.4352 117.184 45.3529C117.892 44.2053 118.874 43.319 120.119 42.6939C121.364 42.0688 122.781 41.7515 124.37 41.7515C125.959 41.7515 127.467 42.0688 128.712 42.6939C129.957 43.319 130.928 44.1867 131.616 45.2969C132.315 46.4072 132.659 47.6947 132.659 49.1595V61.2232C132.659 61.4378 132.477 61.6057 132.244 61.6057H126.384Z" fill="#604538"/>
<path d="M147.365 62.044C145.077 62.044 143.053 61.6054 141.292 60.7471C139.531 59.8794 138.134 58.6758 137.122 57.1271C136.11 55.5783 135.604 53.8149 135.604 51.8463C135.604 49.8777 136.1 48.1983 137.082 46.6682C138.063 45.138 139.409 43.9251 141.12 43.0481C142.83 42.1711 144.753 41.7233 146.889 41.7233C149.024 41.7233 150.856 42.1338 152.445 42.9642C154.034 43.7945 155.3 44.9421 156.221 46.4069C157.142 47.8717 157.607 49.5511 157.607 51.4451C157.607 51.8183 157.587 52.2008 157.546 52.5834C157.506 52.9752 157.405 53.4044 157.263 53.8802L139.116 53.9642V49.7191L154.399 49.6351L151.534 51.4358C151.504 50.3442 151.322 49.4298 150.968 48.6928C150.624 47.9557 150.107 47.3959 149.429 46.9947C148.751 46.5935 147.931 46.3976 146.98 46.3976C145.938 46.3976 145.037 46.6215 144.268 47.0787C143.498 47.5358 142.911 48.1609 142.486 48.9633C142.071 49.7657 141.859 50.7267 141.859 51.8463C141.859 52.9659 142.081 53.9455 142.527 54.7666C142.972 55.5969 143.61 56.2314 144.44 56.6699C145.27 57.1084 146.241 57.3323 147.375 57.3323C148.387 57.3323 149.318 57.1644 150.158 56.8285C150.593 56.6512 151.008 56.4366 151.393 56.1661C152 55.7462 152.84 55.7462 153.387 56.25L156.059 58.6852C155.016 59.8328 153.761 60.6818 152.283 61.2229C150.806 61.7734 149.176 62.044 147.375 62.044H147.365Z" fill="#604538"/>
<path d="M160.735 61.6054V43.1321C160.735 42.5909 161.21 42.1617 161.787 42.1617H167.415V61.6147H160.724L160.735 61.6054ZM167.415 50.9599L164.631 48.9633C165.178 46.6681 166.119 44.8954 167.435 43.6359C168.75 42.3857 170.552 41.7512 172.839 41.7512C173.852 41.7512 174.742 41.8912 175.511 42.1711C176.281 42.451 176.949 42.8708 177.536 43.4306L173.588 48.0769C173.325 47.8064 172.981 47.6011 172.546 47.4332C172.111 47.2746 171.615 47.1906 171.068 47.1906C169.935 47.1906 169.054 47.5078 168.396 48.1329C167.749 48.758 167.415 49.7004 167.415 50.9506V50.9599Z" fill="#604538"/>
<path d="M10.9631 28.5031C8.47332 28.5031 6.34789 28.1392 4.5767 27.4115C3.06866 26.7864 1.68207 25.8907 0.41694 24.6964C0.0424601 24.3419 0.0627023 23.7635 0.437182 23.4089L3.36217 20.7125C3.74677 20.358 4.36416 20.3487 4.74876 20.6939C5.52808 21.403 6.37825 21.9814 7.28915 22.4106C8.4632 22.9704 9.82954 23.2503 11.3882 23.2503C12.7748 23.2503 13.8577 23.0077 14.6371 22.5226C15.4164 22.0374 15.801 21.3843 15.801 20.5446C15.801 19.8169 15.5479 19.2104 15.0621 18.7439C14.5662 18.2774 13.8982 17.8669 13.048 17.531C12.1979 17.1951 11.2769 16.8686 10.285 16.57C9.29312 16.2715 8.30126 15.9076 7.28915 15.4971C6.28716 15.0772 5.36615 14.5734 4.5261 13.967C3.68605 13.3699 3.01806 12.5955 2.512 11.6625C2.00595 10.7295 1.75292 9.56323 1.75292 8.18239C1.75292 6.45634 2.19825 4.98221 3.0889 3.75998C3.97956 2.53775 5.23457 1.60476 6.84382 0.960988C8.45307 0.326549 10.285 0 12.3193 0C14.3537 0 16.3678 0.335879 18.0883 1.01697C19.4547 1.54878 20.6287 2.22986 21.6206 3.06023C22.0457 3.41477 22.076 4.03055 21.6611 4.41308L18.6855 7.15609C18.311 7.5013 17.7139 7.51996 17.3293 7.19341C16.641 6.62428 15.9528 6.18577 15.2646 5.86856C14.3435 5.44871 13.3213 5.24345 12.1878 5.24345C11.0542 5.24345 10.1129 5.44871 9.4247 5.8499C8.74659 6.25108 8.40247 6.83887 8.40247 7.5946C8.40247 8.27569 8.6555 8.82616 9.17167 9.25534C9.67772 9.68452 10.3558 10.0577 11.1858 10.3656C12.0258 10.6828 12.9367 10.9907 13.9488 11.3079C14.9508 11.6252 15.9528 11.9797 16.9649 12.3809C17.9669 12.7821 18.8778 13.3139 19.6976 13.967C20.5174 14.6201 21.1955 15.4318 21.7117 16.3928C22.238 17.3538 22.5011 18.576 22.5011 20.0315C22.5011 22.6718 21.4789 24.7338 19.4446 26.2359C17.4102 27.738 14.5763 28.4844 10.953 28.4844L10.9631 28.5031Z" fill="#604538"/>
<path d="M138.752 14.5921C138.884 13.4072 140.007 12.7634 141.232 13.1459C143.681 13.9297 146.808 15.4505 149.217 18.4174C152.992 23.0637 152.628 28.3351 151.909 31.47C151.656 32.5616 150.381 33.1681 149.298 32.6736C146.97 31.6193 144.167 29.8373 141.96 26.8983C138.61 22.4386 138.428 17.6057 138.772 14.5828L138.752 14.5921Z" fill="#67C44D"/>
<path d="M139.593 13.285C139.694 13.2292 139.805 13.1828 139.927 13.1456C139.815 13.1828 139.704 13.2292 139.593 13.285Z" fill="#67C44D"/>
<path d="M137.173 28.0364C137.791 27.2154 138.307 26.385 138.752 25.5453C136.576 21.4401 136.414 17.335 136.748 14.396C136.839 13.6123 137.183 12.9219 137.689 12.3807C134.936 13.3044 131.515 15.0305 128.854 18.3146C128.317 18.977 127.852 19.6581 127.447 20.3392C127.244 20.6844 127.062 21.0203 126.89 21.3655C125.2 24.7896 125.048 28.2604 125.372 31.0127C125.473 31.8337 125.615 32.5988 125.767 33.2706C125.797 33.4105 125.848 33.5411 125.908 33.6717C125.929 33.7091 125.949 33.7464 125.969 33.7837C126.02 33.8677 126.07 33.9516 126.131 34.0356C126.161 34.0729 126.182 34.1009 126.212 34.1382C126.293 34.2315 126.384 34.3155 126.475 34.3902C126.485 34.3995 126.495 34.4088 126.516 34.4275C126.627 34.5114 126.748 34.5767 126.87 34.6421C126.9 34.6607 126.941 34.67 126.981 34.6887C127.072 34.726 127.174 34.7633 127.275 34.7913C127.315 34.8007 127.356 34.81 127.406 34.8193C127.518 34.838 127.629 34.8566 127.75 34.866C127.781 34.866 127.811 34.866 127.831 34.866C127.933 34.866 128.044 34.8473 128.145 34.838C128.196 34.838 128.246 34.838 128.297 34.8193C128.449 34.7913 128.611 34.7354 128.763 34.67C131.435 33.4572 134.643 31.4232 137.173 28.0551V28.0364Z" fill="#67C44D"/>
<path d="M138.752 14.5919C138.772 14.4613 138.803 14.3306 138.843 14.2094C138.803 14.3306 138.772 14.4519 138.752 14.5919Z" fill="#67C44D"/>
<path d="M140.291 13.0615C140.2 13.0708 140.119 13.0894 140.028 13.108C140.109 13.0894 140.2 13.0708 140.291 13.0615Z" fill="#67C44D"/>
<path d="M168.235 14.5921C168.366 13.4072 169.49 12.7634 170.714 13.1459C173.164 13.9297 176.291 15.4505 178.7 18.4174C182.475 23.0637 182.111 28.3351 181.392 31.47C181.139 32.5616 179.864 33.1681 178.781 32.6736C176.453 31.6193 173.649 29.8373 171.443 26.8983C168.093 22.4386 167.911 17.6057 168.255 14.5828L168.235 14.5921Z" fill="#67C44D"/>
<path d="M166.646 28.0364C167.263 27.2154 167.779 26.385 168.225 25.5453C166.049 21.4401 165.887 17.335 166.221 14.396C166.312 13.6123 166.656 12.9219 167.162 12.3807C166.545 12.586 165.907 12.8192 165.249 13.1178C164.864 13.2857 164.47 13.4723 164.075 13.6869C162.101 14.7132 160.057 16.1967 158.336 18.3146C157.8 18.977 157.334 19.6581 156.93 20.3392C156.727 20.6844 156.545 21.0203 156.373 21.3655C155.695 22.737 155.27 24.1178 155.017 25.452C154.45 28.4563 154.784 31.2553 155.249 33.2706C155.28 33.4105 155.33 33.5411 155.391 33.6717C155.411 33.7091 155.432 33.7464 155.452 33.7837C155.502 33.8677 155.553 33.9516 155.614 34.0356C155.644 34.0729 155.664 34.1009 155.695 34.1382C155.776 34.2315 155.867 34.3062 155.958 34.3808C155.968 34.3902 155.978 34.4088 155.998 34.4181C156.11 34.5021 156.231 34.5674 156.353 34.6327C156.383 34.6514 156.424 34.6607 156.464 34.6794C156.555 34.7167 156.656 34.754 156.758 34.782C156.798 34.7913 156.838 34.8007 156.889 34.81C157 34.8287 157.112 34.8473 157.233 34.8566C157.264 34.8566 157.294 34.8566 157.314 34.8566C157.415 34.8566 157.527 34.838 157.628 34.8287C157.679 34.8287 157.729 34.8287 157.78 34.81C157.932 34.782 158.093 34.726 158.245 34.6607C159.915 33.905 161.798 32.8227 163.589 31.3019C164.662 30.3876 165.705 29.3146 166.656 28.0458L166.646 28.0364Z" fill="#67C44D"/>
<path d="M169.51 13.108C169.591 13.0894 169.682 13.0708 169.773 13.0615C169.682 13.0708 169.601 13.0894 169.51 13.108Z" fill="#67C44D"/>
<path d="M169.065 13.285C169.166 13.2292 169.277 13.1828 169.399 13.1456C169.287 13.1828 169.176 13.2292 169.065 13.285Z" fill="#67C44D"/>
<path d="M168.235 14.5919C168.255 14.4519 168.285 14.3306 168.326 14.2094C168.285 14.3306 168.255 14.4613 168.235 14.5919Z" fill="#67C44D"/>
<path d="M128.985 15.2079H129.117C131.88 12.6608 134.997 11.252 137.325 10.5056C137.811 10.347 138.307 10.2723 138.793 10.2723C139.886 10.2723 140.857 10.6642 141.586 11.308C141.687 11.3359 141.799 11.3453 141.9 11.3826C143.863 12.0077 146.454 13.1553 148.802 15.2079H158.589C161.352 12.6608 164.47 11.252 166.798 10.5056C167.283 10.347 167.779 10.2723 168.265 10.2723C169.358 10.2723 170.33 10.6642 171.059 11.308C171.16 11.3359 171.271 11.3453 171.372 11.3826C173.103 11.9331 175.34 12.9127 177.455 14.5455V9.63789C177.455 9.31134 176.696 9.04077 175.745 9.04077H128.975C128.034 9.04077 127.265 9.31134 127.265 9.63789V14.6108C127.265 14.9373 128.024 15.2079 128.975 15.2079H128.985Z" fill="#604538"/>
</svg>
