<svg width="19" height="21" viewBox="0 0 19 21" fill="none" xmlns="http://www.w3.org/2000/svg">
<path d="M13.75 19.5V14.735C13.7497 14.526 13.7083 14.3192 13.628 14.1262C13.5477 13.9333 13.4302 13.7581 13.2822 13.6106C13.1341 13.4631 12.9585 13.3462 12.7652 13.2667C12.572 13.1872 12.365 13.1465 12.156 13.147H6.844C6.63503 13.1465 6.42801 13.1872 6.23477 13.2667C6.04153 13.3462 5.86586 13.4631 5.71782 13.6106C5.56978 13.7581 5.45226 13.9333 5.37199 14.1262C5.29171 14.3192 5.25026 14.526 5.25 14.735V19.5M13.75 1.78501V4.14701C13.7497 4.35598 13.7083 4.56285 13.628 4.75579C13.5477 4.94873 13.4302 5.12395 13.2822 5.27143C13.1341 5.41892 12.9585 5.53577 12.7652 5.61532C12.572 5.69486 12.365 5.73554 12.156 5.73501H6.844C6.63503 5.73554 6.42801 5.69486 6.23477 5.61532C6.04153 5.53577 5.86586 5.41892 5.71782 5.27143C5.56978 5.12395 5.45226 4.94873 5.37199 4.75579C5.29171 4.56285 5.25026 4.35598 5.25 4.14701V1.50001M13.75 1.78501C13.3353 1.59719 12.8853 1.50003 12.43 1.50001H5.25M13.75 1.78501C14.094 1.94101 14.411 2.15901 14.684 2.43001L17.066 4.80501C17.3618 5.09933 17.5965 5.44915 17.7568 5.8344C17.9171 6.21965 17.9997 6.63275 18 7.05001V16.322C17.9997 16.74 17.9171 17.1539 17.7567 17.5399C17.5963 17.926 17.3614 18.2766 17.0654 18.5718C16.7694 18.867 16.4181 19.1009 16.0316 19.2601C15.6451 19.4194 15.231 19.5009 14.813 19.5H4.188C3.76998 19.5011 3.35585 19.4197 2.9693 19.2605C2.58276 19.1014 2.23139 18.8676 1.93529 18.5725C1.63919 18.2774 1.40417 17.9269 1.24369 17.5409C1.0832 17.1549 1.00039 16.741 1 16.323V4.67601C1.00052 4.25807 1.08343 3.84433 1.24397 3.45846C1.40452 3.07258 1.63956 2.72214 1.93564 2.42716C2.23173 2.13219 2.58306 1.89848 2.96953 1.73939C3.35601 1.5803 3.77006 1.49896 4.188 1.50001H5.25" stroke="#5384AF" stroke-width="1.5" stroke-linecap="round" stroke-linejoin="round"/>
</svg>
