<svg width="25" class="menu-icon" height="26" viewBox="0 0 25 26" fill="none" xmlns="http://www.w3.org/2000/svg">
<path d="M24.3255 11.3925C24.3249 11.3919 24.3243 11.3913 24.3238 11.3907L14.1257 1.01141C13.6911 0.568782 13.1131 0.324951 12.4984 0.324951C11.8837 0.324951 11.3057 0.568588 10.8709 1.01121L0.678172 11.3853C0.674739 11.3888 0.671305 11.3925 0.667872 11.396C-0.224767 12.3098 -0.223241 13.7924 0.672259 14.7038C1.08139 15.1204 1.62174 15.3617 2.19947 15.387C2.22293 15.3893 2.24658 15.3905 2.27043 15.3905H2.67688V23.029C2.67688 24.5405 3.88519 25.7704 5.37063 25.7704H9.36042C9.76478 25.7704 10.0928 25.4366 10.0928 25.0249V19.0363C10.0928 18.3465 10.6441 17.7855 11.3217 17.7855H13.675C14.3527 17.7855 14.9039 18.3465 14.9039 19.0363V25.0249C14.9039 25.4366 15.2318 25.7704 15.6364 25.7704H19.6262C21.1116 25.7704 22.3199 24.5405 22.3199 23.029V15.3905H22.6968C23.3113 15.3905 23.8893 15.1468 24.3243 14.7042C25.2208 13.7912 25.2212 12.3061 24.3255 11.3925Z" fill="#B1B1B1"/>
</svg>
