<svg width="25" height="20" viewBox="0 0 25 20" fill="none" xmlns="http://www.w3.org/2000/svg">
<path d="M20.0595 12.3428C19.1229 12.9223 18.0472 13.2271 16.9511 13.2235C16.0329 13.2161 15.125 13.025 14.2792 12.6609C13.6274 13.5975 13.2785 14.7176 13.2812 15.8654V18.7966C13.2814 18.9056 13.2596 19.0135 13.2172 19.1136C13.1747 19.2137 13.1125 19.3038 13.0344 19.3784C12.9563 19.453 12.8639 19.5104 12.7631 19.5471C12.6622 19.5838 12.5551 19.599 12.4482 19.5918C12.2474 19.574 12.0606 19.4796 11.9253 19.3275C11.79 19.1755 11.7162 18.9769 11.7187 18.7718V17.5353L7.94721 13.6966C7.38656 13.9095 6.79363 14.0209 6.19526 14.0256C5.37148 14.0278 4.56312 13.7984 3.85932 13.3627C1.73139 12.0466 0.585882 9.01805 0.807562 5.25789C0.818724 5.06336 0.899678 4.87977 1.03506 4.74198C1.17043 4.60419 1.35081 4.52179 1.54194 4.51043C5.23627 4.28878 8.21186 5.45072 9.50092 7.61656C10.0074 8.46549 10.2285 9.45918 10.1308 10.4474C10.1247 10.5239 10.097 10.5971 10.051 10.6579C10.0049 10.7188 9.94254 10.7648 9.87137 10.7903C9.8002 10.8159 9.72328 10.8199 9.64991 10.8019C9.57655 10.7839 9.50987 10.7446 9.45795 10.6889L7.58295 8.69103C7.43525 8.54821 7.23857 8.46976 7.03485 8.47241C6.83113 8.47507 6.63649 8.55861 6.49242 8.70525C6.34836 8.85188 6.26627 9.04998 6.26366 9.25733C6.26105 9.46468 6.33813 9.66487 6.47846 9.8152L11.7402 15.3068C11.746 15.2293 11.7529 15.1518 11.7607 15.0752C11.9315 13.601 12.5707 12.2238 13.581 11.1531L18.5214 5.83936C18.668 5.69028 18.7504 5.48804 18.7505 5.27713C18.7506 5.06621 18.6684 4.8639 18.5219 4.71469C18.3755 4.56548 18.1768 4.48161 17.9695 4.48152C17.7623 4.48142 17.5635 4.56512 17.4169 4.71419L12.6318 9.8649C12.5839 9.91654 12.5233 9.95418 12.4562 9.9739C12.3892 9.99363 12.3182 9.99472 12.2506 9.97707C12.1831 9.95942 12.1214 9.92366 12.0719 9.87352C12.0225 9.82338 11.9872 9.76068 11.9697 9.69195C11.5068 7.95451 11.7109 6.22502 12.5947 4.74004C14.3388 1.80984 18.3974 0.241368 23.4521 0.543532C23.6432 0.554892 23.8236 0.637289 23.959 0.775079C24.0944 0.912869 24.1753 1.09646 24.1865 1.29099C24.4794 6.43673 22.9384 10.5676 20.0595 12.3428Z" fill="#B1B1B1"/>
</svg>
