<?xml version="1.0" encoding="UTF-8"?>
<svg id="Calque_2" xmlns="http://www.w3.org/2000/svg" version="1.1" viewBox="0 0 179.7 66.5">
  <!-- Generator: Adobe Illustrator 29.2.1, SVG Export Plug-In . SVG Version: 2.1.0 Build 116)  -->
  <defs>
    <style>
      .st0 {
        fill:rgb(194, 172, 161);
      }

      .st1 {
        fill:rgb(180, 227, 167);
      }
    </style>
  </defs>
  <g id="Calque_1-2">
    <g id="Logo_Typo_deforme">
      <path class="st0" d="M57.9,13.9c-.7-1.1-1.6-2-2.7-2.6-1.2-.6-2.4-.9-3.9-.9s-2.9.3-4.1,1c-.8.4-1.5,1-2.1,1.7-.6-.7-1.2-1.3-2-1.7-1.1-.6-2.3-.9-3.6-.9s-2.7.3-3.9.9c-.5.3-1,.6-1.4,1v-1.5h-5.4c-.4,0-.7.3-.7.7v18.5h6.1v-11.2c0-.6.1-1.2.4-1.6.3-.4.7-.8,1.1-1,.5-.3,1-.4,1.6-.4.9,0,1.6.3,2.2.8s.9,1.3.9,2.2v10.7c0,.3.3.6.6.6h4.9c.3,0,.6-.3.6-.6v-10.8c0-.6.1-1,.4-1.5.3-.4.6-.8,1.1-1,.5-.3,1-.4,1.6-.4.8,0,1.6.3,2.2.8s.9,1.3.9,2.2v10.7c0,.3.3.6.6.6h0s4.9,0,4.9,0c.3,0,.6-.3.6-.6v-11.4c0-1.6-.3-3-1-4.1Z"/>
      <path class="st0" d="M76,10.7v1.6c-.5-.5-1.1-.9-1.8-1.2-1-.5-2.2-.8-3.5-.8s-3.3.4-4.7,1.3c-1.4.8-2.5,2-3.3,3.6-.8,1.5-1.2,3.2-1.2,5.2s.4,3.6,1.2,5.1c.8,1.5,1.9,2.7,3.3,3.6,1.4.9,3,1.3,4.7,1.3h0c1.3,0,2.5-.2,3.5-.7.7-.3,1.2-.7,1.8-1.2v1.6h6V10.7h-6ZM72,24.8c-.8,0-1.6-.2-2.2-.6-.7-.4-1.2-.9-1.5-1.6-.4-.7-.6-1.5-.6-2.3s.2-1.6.6-2.3c.4-.7.9-1.2,1.5-1.6.7-.4,1.4-.6,2.2-.6s1.6.2,2.3.6c.7.4,1.2.9,1.5,1.6.3.7.5,1.4.5,2.3,0,1.4-.4,2.4-1.2,3.3-.8.8-1.8,1.3-3.1,1.3Z"/>
      <path class="st0" d="M99.8,10.7c-.7-.3-1.5-.4-2.4-.4-2.1,0-3.7.6-4.9,1.9,0,0,0,0,0,0v-1.5h-5.2c-.5,0-.9.4-.9.9v18.4h6.1v-10.5c0-1.2.3-2.2.9-2.8.6-.6,1.4-.9,2.4-.9s1,0,1.4.2.7.4,1,.6l3.6-4.6c-.5-.6-1.1-1-1.8-1.2Z"/>
      <path class="st0" d="M118.2,10.7h-3.8v-3.8c0-.3-.2-.5-.5-.5h-5.2c-.3,0-.5.2-.5.5v3.8h-3.8c-.3,0-.5.2-.5.5v5.2c0,.3.2.5.5.5h3.8v3.8c0,.3.2.5.5.5h5.2c.3,0,.5-.2.5-.5v-3.8h3.8c.3,0,.5-.2.5-.5v-5.2c0-.3-.2-.5-.5-.5Z"/>
      <path class="st0" d="M46.7,35.7h-3.8c-.3,0-.6.2-.7.5l-4.4,17.3-3.3-14c-.2-.7-.7-1.1-1.4-1.1h-3.8c-.7,0-1.3.5-1.4,1.1l-3.2,14-4.4-17.3c0-.3-.3-.5-.7-.5h-3.9c-.5,0-.8.4-.7.9l7.2,26.7c.2.6.7,1,1.3,1h2.1c.6,0,1.2-.4,1.3-1l4.3-16.1,4.3,16.1c.2.6.7,1,1.3,1h2.1c.6,0,1.1-.4,1.3-1l7.2-26.7c.1-.4-.2-.9-.7-.9Z"/>
      <path class="st0" d="M63.8,48.5c-.9-1.5-2-2.6-3.5-3.5s-3.2-1.3-5.2-1.3-3.8.5-5.4,1.3-2.9,2.1-3.8,3.7c-.9,1.5-1.4,3.2-1.4,5.2s.5,3.8,1.4,5.3c.9,1.6,2.2,2.8,3.9,3.7,1.6.9,3.5,1.3,5.7,1.3h0c1.7,0,3.2-.3,4.6-.8,1.4-.5,2.5-1.4,3.5-2.6l-2.5-2.4c-.5-.5-1.3-.5-1.9,0-.3.3-.7.5-1.1.6-.8.3-1.7.5-2.6.5s-2-.2-2.7-.7c-.8-.4-1.4-1.1-1.8-1.9-.1-.3-.2-.5-.3-.8h14.1c.1-.6.2-1,.3-1.4,0-.4,0-.8,0-1.2,0-1.9-.4-3.6-1.3-5.1ZM52.7,49.2c.7-.5,1.6-.7,2.5-.7s1.7.2,2.3.6,1.1,1,1.4,1.7c.1.3.2.6.3,1h-8.5c0-.2.2-.5.3-.7.4-.8.9-1.4,1.7-1.9Z"/>
      <path class="st0" d="M81.7,44.2v1.6c-.5-.5-1.1-.9-1.8-1.3-1.1-.5-2.3-.8-3.6-.8s-3.4.4-4.8,1.3c-1.4.9-2.5,2.1-3.4,3.6-.8,1.6-1.2,3.3-1.2,5.3s.4,3.7,1.2,5.2c.8,1.5,1.9,2.7,3.4,3.6,1.4.9,3,1.4,4.8,1.4h0c1.4,0,2.6-.3,3.6-.8.7-.3,1.3-.7,1.8-1.2v1.6h0s6.1,0,6.1,0v-19.7h-6.1ZM77.6,58.6c-.8,0-1.6-.2-2.2-.6-.7-.4-1.2-.9-1.6-1.6-.4-.7-.6-1.5-.6-2.4s.2-1.7.6-2.4c.4-.7.9-1.3,1.6-1.6.7-.4,1.4-.6,2.2-.6s1.6.2,2.3.6c.7.4,1.2.9,1.5,1.6s.5,1.5.5,2.4c0,1.4-.4,2.5-1.2,3.4-.8.9-1.9,1.3-3.2,1.3Z"/>
      <path class="st0" d="M105,44.2h-3.8v-4.5c0-.3-.3-.6-.6-.6h-5c-.3,0-.6.3-.6.6v4.5h-3.8c-.3,0-.6.3-.6.6v4c0,.3.3.6.6.6h3.8v13.8c0,.3.3.6.6.6h5c.3,0,.6-.3.6-.6v-13.8h3.8c.3,0,.6-.3.6-.6v-4c0-.3-.3-.6-.6-.6Z"/>
      <path class="st0" d="M126.5,47.4c-.6-1.1-1.5-2-2.7-2.6-1.2-.6-2.6-1-4.1-1s-2.8.3-4,1c-.5.3-.9.6-1.3,1v-21c0-.2-.2-.4-.4-.4h-5.5c-.2,0-.4.2-.4.4v38.8c0,.2.2.4.4.4h5.5c.2,0,.4-.2.4-.4v-11.3s0,0,0,0c0-.5.2-.9.4-1.2.3-.5.7-.9,1.2-1.2s1.1-.4,1.7-.4c1,0,1.8.3,2.4,1,.7.6,1,1.5,1,2.5v10.8c0,.2.2.4.4.4h5.5c.2,0,.4-.2.4-.4v-12.2c0-1.5-.3-2.8-1-3.9Z"/>
      <path class="st0" d="M149.5,48.5c-.9-1.5-2-2.6-3.5-3.5s-3.2-1.3-5.2-1.3-3.8.5-5.4,1.3-2.9,2.1-3.8,3.7c-.9,1.5-1.4,3.2-1.4,5.2s.5,3.8,1.4,5.3c.9,1.6,2.2,2.8,3.9,3.7,1.6.9,3.5,1.3,5.7,1.3h0c1.7,0,3.2-.3,4.6-.8,1.4-.5,2.5-1.4,3.5-2.6l-2.5-2.5c-.5-.5-1.3-.5-1.9,0-.4.3-.7.5-1.2.7-.8.3-1.7.5-2.6.5s-2-.2-2.7-.7c-.8-.4-1.4-1.1-1.8-1.9-.1-.3-.2-.5-.3-.8h14.1c.1-.6.2-1,.3-1.4,0-.4,0-.8,0-1.2,0-1.9-.4-3.6-1.3-5.1ZM138.3,49.2c.7-.5,1.6-.7,2.5-.7s1.7.2,2.3.6c.6.4,1.1,1,1.4,1.7.1.3.2.6.3,1h-8.5c0-.2.2-.5.3-.7.4-.8.9-1.4,1.7-1.9Z"/>
      <path class="st0" d="M167.5,44.2c-.7-.3-1.5-.4-2.5-.4-2.1,0-3.8.6-5,1.9,0,0,0,0,0,0v-1.5h-5.3c-.5,0-1,.4-1,1v18.7h0s6.2,0,6.2,0v-10.8h0s0,0,0,0c0-1.3.3-2.2.9-2.9.6-.6,1.4-1,2.5-1s1,0,1.4.2c.4.2.7.4,1,.7l3.7-4.7c-.5-.6-1.2-1-1.9-1.3Z"/>
      <path class="st0" d="M13.9,30.4c-2.3,0-4.3-.4-6-1.1-1.4-.6-2.7-1.5-3.9-2.7-.3-.4-.3-.9,0-1.3l2.7-2.7c.4-.4.9-.4,1.3,0,.7.7,1.5,1.3,2.4,1.7,1.1.6,2.4.8,3.8.8s2.3-.2,3-.7,1.1-1.2,1.1-2-.2-1.4-.7-1.8c-.5-.5-1.1-.9-1.9-1.2-.8-.3-1.7-.7-2.6-1-.9-.3-1.9-.7-2.8-1.1-.9-.4-1.8-.9-2.6-1.5-.8-.6-1.4-1.4-1.9-2.3s-.7-2.1-.7-3.5.4-3.2,1.2-4.5,2-2.2,3.5-2.8c1.5-.6,3.2-1,5.1-1s3.8.3,5.4,1c1.3.5,2.4,1.2,3.3,2.1.4.4.4,1,0,1.4l-2.8,2.8c-.3.3-.9.4-1.3,0-.6-.6-1.3-1-1.9-1.3-.9-.4-1.8-.6-2.9-.6s-1.9.2-2.6.6c-.6.4-1,1-1,1.8s.2,1.2.7,1.7c.5.4,1.1.8,1.9,1.1.8.3,1.6.6,2.6,1,.9.3,1.9.7,2.8,1.1.9.4,1.8.9,2.5,1.6s1.4,1.5,1.9,2.5c.5,1,.7,2.2.7,3.7,0,2.7-1,4.8-2.9,6.3s-4.5,2.3-7.9,2.3h0Z"/>
      <path class="st1" d="M135.1,17.5c.1-1.1,1-1.6,2.1-1.3,2,.7,4.6,2.1,6.6,4.8,3.1,4.2,2.8,8.9,2.2,11.8-.2,1-1.3,1.5-2.2,1.1-1.9-1-4.3-2.6-6.1-5.2-2.8-4-2.9-8.4-2.6-11.1h0Z"/>
      <path class="st1" d="M160.9,17.5c.1-1.1,1-1.6,2.1-1.3,2,.7,4.6,2.1,6.6,4.8,3.1,4.2,2.8,8.9,2.2,11.8-.2,1-1.3,1.5-2.2,1.1-1.9-1-4.3-2.6-6.1-5.2-2.8-4-2.9-8.4-2.6-11.1h0Z"/>
      <path class="st1" d="M132.8,18.6c0,2.2.2,4.8,1.4,7.5-.5,1.1-1,2.2-1.8,3.3-2.1,3.1-4.8,4.9-7,6-1,.5-2.3-.1-2.5-1.3-.7-3.3-1-8.7,2.6-13.6,2.3-3.1,5.3-4.7,7.6-5.5.5-.2.9-.1,1.3,0-.1,0-.3.1-.4.2-.6.4-1,1-1.1,1.8,0,0-.1.8,0,1.5Z"/>
      <path class="st1" d="M160.2,25.9c-.1-.3-.2-.6-.3-.8,0-.3-.2-.5-.2-.8,0,0,0-.2,0-.3-.6-2.2-.8-4.3-.8-6.1h0s.2-1.7.2-1.7c0-.4.2-.8.3-1.1,0,0,0,0,0,0-2.3.8-5.3,2.4-7.6,5.5-3.6,4.8-3.3,10.3-2.6,13.6.2,1.1,1.5,1.8,2.5,1.3,2.2-1.1,4.9-2.9,7-6,.8-1.1,1.3-2.2,1.8-3.3,0,0,0-.2-.1-.3Z"/>
      <path class="st0" d="M161.4,13.3c.2.1.4.3.6.5.2,0,.3,0,.5.1,2,.7,3.8,1.7,5.3,3,.8,0,1.5-.3,1.5-.6v-5c0-.3-.7-.6-1.6-.6h-43.6c-.9,0-1.6.3-1.6.6v5c0,.3.7.6,1.6.6h2.7c2.3-2,4.7-3.2,6.6-3.9.9-.3,1.9-.2,2.6.3.2.1.4.3.6.5.2,0,.3,0,.5.1,2,.7,3.8,1.7,5.3,3h9.9c2.3-2,4.7-3.2,6.6-3.9.9-.3,1.9-.2,2.6.3Z"/>
    </g>
  </g>
</svg>