<?xml version="1.0" encoding="UTF-8"?>
<svg id="Calque_2" data-name="Calque 2" xmlns="http://www.w3.org/2000/svg" viewBox="0 0 122.16 60.38">
  <defs>
    <style>
      .cls-1 {
        fill: rgb(194, 172, 161);
      }

      .cls-2 {
        fill: rgb(180, 227, 167);
      }
    </style>
  </defs>
  <g id="Calque_1-2" data-name="Calque 1">
    <path class="cls-2" d="M29.17,12.98c.29-2.77,2.71-4.29,5.35-3.38,5.28,1.83,12.04,5.4,17.22,12.34,8.14,10.89,7.36,23.21,5.8,30.56-.54,2.55-3.31,3.97-5.64,2.82-5.03-2.47-11.08-6.64-15.84-13.52-7.22-10.43-7.63-21.75-6.89-28.83Z"/>
    <g>
      <path class="cls-2" d="M30.36,10.41c.18-.17.37-.33.57-.46-.21.13-.4.29-.57.46Z"/>
      <path class="cls-2" d="M30.19,10.6c-.12.14-.24.28-.34.44.1-.16.22-.3.34-.44Z"/>
      <path class="cls-2" d="M30.97,9.91c.22-.14.46-.25.71-.34-.25.09-.49.2-.71.34Z"/>
      <path class="cls-2" d="M25.76,44.45c1.33-1.92,2.44-3.88,3.4-5.83-4.7-9.6-5.04-19.23-4.32-26.09.19-1.84.94-3.45,2.02-4.72-5.95,2.16-13.33,6.21-19.06,13.88-1.16,1.56-2.17,3.14-3.03,4.74-.43.8-.83,1.6-1.19,2.4C-.07,36.85-.4,44.97.3,51.41c.21,1.93.51,3.71.85,5.29.07.33.18.64.31.93.04.09.09.17.13.26.11.21.23.4.36.58.06.08.11.16.17.23.17.21.36.4.57.58.03.02.05.05.08.08.24.19.5.36.76.5.08.04.15.07.23.11.2.09.41.17.63.24.09.03.18.05.28.07.24.05.49.09.73.1.06,0,.12.02.18.02.22,0,.45-.03.68-.07.11-.02.23-.01.34-.04.34-.08.67-.19,1-.35,5.77-2.83,12.69-7.6,18.15-15.48Z"/>
      <path class="cls-2" d="M29.17,12.98c.03-.32.1-.61.19-.89-.09.28-.15.58-.19.89Z"/>
      <path class="cls-2" d="M29.46,11.83c.07-.19.15-.37.24-.54-.09.17-.17.35-.24.54Z"/>
      <path class="cls-2" d="M32.77,9.36c.07,0,.14,0,.2,0,0,0,0-.01-.01-.02-.06,0-.13.01-.19.02Z"/>
      <path class="cls-2" d="M32.48,9.39c-.19.03-.38.07-.56.12.18-.05.37-.09.56-.12Z"/>
    </g>
    <path class="cls-2" d="M92.78,12.98c.29-2.77,2.71-4.29,5.35-3.38,5.28,1.83,12.04,5.4,17.22,12.34,8.14,10.89,7.36,23.21,5.8,30.56-.54,2.55-3.31,3.97-5.64,2.82-5.03-2.47-11.08-6.64-15.84-13.52-7.22-10.43-7.63-21.75-6.89-28.83Z"/>
    <g>
      <path class="cls-2" d="M96.38,9.36c.07,0,.14,0,.2,0,0,0,0-.01-.01-.02-.06,0-.13.01-.19.02Z"/>
      <path class="cls-2" d="M89.36,44.45c1.33-1.92,2.44-3.88,3.4-5.83-4.7-9.6-5.04-19.23-4.32-26.09.19-1.84.93-3.45,2.02-4.72-1.32.48-2.7,1.03-4.14,1.72-.83.4-1.68.84-2.53,1.32-4.27,2.41-8.68,5.87-12.39,10.84-1.16,1.56-2.17,3.14-3.03,4.74-.43.8-.83,1.6-1.19,2.4-1.45,3.21-2.38,6.43-2.92,9.56-1.22,7.03-.5,13.57.51,18.31.07.33.18.64.31.93.04.09.09.17.13.26.11.21.23.4.36.58.06.08.11.16.17.23.17.21.36.4.57.58.03.02.05.06.08.08.24.19.5.36.76.5.08.04.15.07.23.11.2.09.41.17.63.24.09.03.18.05.28.07.24.05.49.09.73.1.06,0,.12.02.18.02.22,0,.45-.03.68-.07.11-.02.23-.01.34-.04.34-.08.67-.19,1-.35,3.6-1.77,7.66-4.3,11.53-7.87,2.32-2.14,4.57-4.66,6.62-7.61Z"/>
      <path class="cls-2" d="M95.53,9.51c.18-.05.37-.09.56-.12-.19.03-.38.07-.56.12Z"/>
      <path class="cls-2" d="M93.97,10.41c.18-.17.37-.33.57-.46-.21.13-.4.29-.57.46Z"/>
      <path class="cls-2" d="M93.46,11.04c.1-.16.22-.3.34-.44-.12.14-.24.28-.34.44Z"/>
      <path class="cls-2" d="M94.58,9.91c.22-.14.46-.25.71-.34-.25.09-.49.2-.71.34Z"/>
      <path class="cls-2" d="M92.78,12.98c.03-.32.1-.61.19-.9-.09.28-.15.58-.19.9Z"/>
      <path class="cls-2" d="M93.06,11.83c.07-.19.15-.37.24-.54-.09.17-.17.35-.24.54Z"/>
    </g>
    <path class="cls-1" d="M8.09,14.43h.28c5.97-5.96,12.69-9.26,17.72-11,1.04-.36,2.11-.54,3.17-.54,2.35,0,4.45.91,6.02,2.42.22.06.45.1.67.17,4.23,1.46,9.82,4.15,14.9,8.95h21.13c5.97-5.96,12.69-9.26,17.72-11,1.04-.36,2.11-.54,3.17-.54,2.35,0,4.45.91,6.02,2.42.22.06.45.1.67.17,3.74,1.29,8.55,3.58,13.13,7.4V1.4c0-.77-1.65-1.4-3.68-1.4H8.09c-2.03,0-3.68.63-3.68,1.4v11.63c0,.77,1.65,1.4,3.68,1.4Z"/>
  </g>
</svg>