<svg width="19" height="20" viewBox="0 0 19 20" fill="none" xmlns="http://www.w3.org/2000/svg">
<path d="M0.125 17.8142H18.875V19.9346H0.125V17.8142ZM3.25 14.6335C4.39583 14.6335 5.33333 13.6793 5.33333 12.5131C5.33333 11.983 5.125 11.4528 4.8125 11.1348L6.16667 8.27216H6.375C6.89583 8.27216 7.41667 8.06012 7.72917 7.74205L10.5417 9.22637V9.33239C10.5417 10.4986 11.4792 11.4528 12.625 11.4528C13.7708 11.4528 14.7083 10.4986 14.7083 9.33239C14.7083 8.80228 14.5 8.37819 14.1875 7.9541L15.5417 5.09149H15.75C16.8958 5.09149 17.8333 4.13728 17.8333 2.97104C17.8333 1.80479 16.8958 0.850586 15.75 0.850586C14.6042 0.850586 13.6667 1.80479 13.6667 2.97104C13.6667 3.50115 13.875 4.03126 14.1875 4.34933L12.8333 7.21194H12.625C12.1042 7.21194 11.5833 7.42398 11.2708 7.74205L8.45833 6.36376V6.15171C8.45833 4.98547 7.52083 4.03126 6.375 4.03126C5.22917 4.03126 4.29167 4.98547 4.29167 6.15171C4.29167 6.68183 4.5 7.21194 4.8125 7.53001L3.45833 10.3926H3.25C2.10417 10.3926 1.16667 11.3468 1.16667 12.5131C1.16667 13.6793 2.10417 14.6335 3.25 14.6335Z" fill="#67C44D"/>
</svg>
