<svg width="25" height="26" viewBox="0 0 25 26" fill="none" xmlns="http://www.w3.org/2000/svg">
<g clip-path="url(#clip0_591_1194)">
<path d="M24.7852 1.66665L23.7495 0.612409C23.5336 0.392545 23.2063 0.332311 22.9286 0.460532L17.3654 2.96019C17.1465 3.06157 16.9906 3.26549 16.9477 3.50582C16.9051 3.74681 16.9805 3.99331 17.1505 4.16631L21.2936 8.38323C21.4636 8.55623 21.7058 8.63292 21.9425 8.58963C22.1787 8.54594 22.379 8.38736 22.4786 8.16446L24.9345 2.50207C25.0604 2.21944 25.0013 1.88642 24.7852 1.66665Z" fill="#B1B1B1"/>
<path d="M4.73145 16.8067L0.642589 20.9684C-0.214196 21.8405 -0.214196 23.2591 0.642589 24.1311L1.67833 25.1853C2.53512 26.0573 3.92891 26.0573 4.78565 25.1853L8.87451 21.0236L4.73145 16.8067ZM4.27496 22.5529C3.98868 22.8443 3.52535 22.8443 3.23912 22.5529C2.95294 22.2615 2.95294 21.7899 3.23912 21.4987L5.25645 19.4454C5.54273 19.154 6.00601 19.154 6.29219 19.4454C6.57847 19.7368 6.57847 20.2083 6.29219 20.4996L4.27496 22.5529Z" fill="#B1B1B1"/>
<path d="M11.9819 17.8608L7.8388 13.6439C7.26776 13.0627 6.33827 13.0627 5.76727 13.6439C5.19623 14.2251 5.19623 15.1712 5.76727 15.7524L9.91038 19.9693C10.4813 20.5505 11.4109 20.5505 11.9819 19.9693C12.553 19.3882 12.553 18.4421 11.9819 17.8608Z" fill="#B1B1B1"/>
<path d="M19.2222 8.38314L17.1506 6.27466L11.464 12.0626C10.8919 11.4804 9.96455 11.4804 9.39243 12.0626L8.87451 12.5897L13.0176 16.8067L13.5355 16.2795C14.1076 15.6972 14.1076 14.7533 13.5355 14.1711L19.2222 8.38314Z" fill="#B1B1B1"/>
<path d="M23.7146 18.2036C22.5256 16.9934 21.0959 16.7332 19.4554 17.0316L16.1256 13.6428L15.3304 14.4522C15.5922 15.4536 15.3377 16.553 14.5708 17.3335L14.054 17.8596L16.3455 20.1918C16.1144 21.5078 16.1361 22.6239 16.9392 23.8346C17.8658 25.2321 19.4876 26.0265 21.1868 25.7885C21.4677 25.7491 21.7023 25.5509 21.7926 25.2773C21.8828 25.0038 21.8132 24.7018 21.6128 24.4977L20.6055 23.4742V21.366H22.679L23.6806 22.3856C23.8815 22.59 24.1791 22.6604 24.448 22.5678C24.7171 22.4751 24.9113 22.2353 24.949 21.9487C25.1279 20.5927 24.6921 19.198 23.7146 18.2036Z" fill="#B1B1B1"/>
<path d="M8.64425 6.02485C8.93492 4.37254 8.69957 2.91898 7.49273 1.68975C6.67159 0.854025 5.57296 0.393921 4.39923 0.393921C4.20163 0.393921 4.00612 0.407041 3.81315 0.433033C3.53136 0.471102 3.29548 0.668999 3.20436 0.943084C3.11325 1.21707 3.18283 1.52003 3.38381 1.72458L4.39533 2.74389V4.86669H2.31364L1.30964 3.83049C1.1091 3.62638 0.812082 3.55576 0.543235 3.64785C0.274485 3.73994 0.0801008 3.97898 0.0414778 4.265C-0.181666 5.9188 0.522385 7.59894 1.95886 8.58594C3.1528 9.40466 4.25602 9.42494 5.53932 9.18947L7.84015 11.5351L8.35719 11.0089C9.12408 10.2283 10.2042 9.96933 11.1881 10.2357L11.9829 9.42673L8.64425 6.02485Z" fill="#B1B1B1"/>
</g>
<defs>
<clipPath id="clip0_591_1194">
<rect width="25" height="25.4454" fill="white" transform="translate(0 0.393921)"/>
</clipPath>
</defs>
</svg>
