<svg width="27" height="35" viewBox="0 0 27 35" fill="none" xmlns="http://www.w3.org/2000/svg">
<path d="M13.0781 17.5C15.3117 17.5 17.4539 16.6127 19.0333 15.0333C20.6127 13.4539 21.5 11.3117 21.5 9.07812C21.5 6.8445 20.6127 4.70237 19.0333 3.12296C17.4539 1.54355 15.3117 0.65625 13.0781 0.65625C10.8445 0.65625 8.70237 1.54355 7.12296 3.12296C5.54355 4.70237 4.65625 6.8445 4.65625 9.07812C4.65625 11.3117 5.54355 13.4539 7.12296 15.0333C8.70237 16.6127 10.8445 17.5 13.0781 17.5ZM4.65625 20.5625C3.43791 20.5625 2.26947 21.0465 1.40798 21.908C0.546483 22.7695 0.0625 23.9379 0.0625 25.1562V25.3859C0.0625 25.3859 0.0625 34.3438 13.0781 34.3438C26.0938 34.3438 26.0938 25.3859 26.0938 25.3859V25.1562C26.0937 23.9379 25.6098 22.7695 24.7483 21.908C23.8868 21.0465 22.7183 20.5625 21.5 20.5625H4.65625Z" fill="#606060"/>
</svg>
