<svg width="23" height="20" viewBox="0 0 23 20" fill="none" xmlns="http://www.w3.org/2000/svg">
<path d="M5.66668 5.94474V5.09655C5.66668 3.9718 6.10567 2.89311 6.88707 2.09778C7.66847 1.30246 8.72828 0.855652 9.83335 0.855652C10.9384 0.855652 11.9982 1.30246 12.7796 2.09778C13.561 2.89311 14 3.9718 14 5.09655V14.9236L17.9417 10.9117L17.3633 8.71489L17.3617 8.70471H17.36C17.3127 8.52413 17.3254 8.33271 17.396 8.16019C17.4666 7.98767 17.5912 7.84371 17.7504 7.75067C17.9096 7.65764 18.0946 7.62074 18.2766 7.64571C18.4586 7.67068 18.6273 7.75613 18.7567 7.88876L22.09 11.2815C22.2197 11.413 22.3032 11.5844 22.3276 11.769C22.3521 11.9537 22.3161 12.1414 22.2252 12.3032C22.1344 12.4649 21.9937 12.5917 21.825 12.664C21.6563 12.7363 21.4688 12.75 21.2917 12.703L21.275 12.6979L19.12 12.111L14 17.3222V17.8193C14 18.2692 13.8244 18.7006 13.5119 19.0188C13.1993 19.3369 12.7754 19.5156 12.3333 19.5156H7.33334C6.89132 19.5156 6.46739 19.3369 6.15483 19.0188C5.84227 18.7006 5.66668 18.2692 5.66668 17.8193V17.0322L1.88668 13.1848C1.10626 12.3888 0.667969 11.3102 0.667969 10.1856C0.667969 9.0611 1.10626 7.98249 1.88668 7.18647C2.27367 6.79269 2.73307 6.48035 3.23867 6.2673C3.74426 6.05424 4.28613 5.94463 4.83334 5.94474H5.66668ZM5.66668 7.6411H4.83334C4.33873 7.64087 3.85516 7.78998 3.44383 8.06956C3.03249 8.34914 2.71189 8.74663 2.52258 9.21173C2.33326 9.67682 2.28375 10.1886 2.38031 10.6824C2.47687 11.1761 2.71515 11.6296 3.06501 11.9855L5.66668 14.6318V7.6411ZM12.3333 5.94474V5.09655C12.3333 4.4217 12.07 3.77449 11.6011 3.29729C11.1323 2.8201 10.4964 2.55201 9.83335 2.55201C9.1703 2.55201 8.53442 2.8201 8.06558 3.29729C7.59674 3.77449 7.33334 4.4217 7.33334 5.09655V5.94474H12.3333Z" fill="#B1B1B1"/>
</svg>
