<?xml version="1.0" encoding="UTF-8"?>
<svg id="Calque_2" data-name="Calque 2" xmlns="http://www.w3.org/2000/svg" viewBox="0 0 83.53 57.75">
  <defs>
    <style>
      .cls-1 {
        fill: #0082a0;
      }

      .cls-2 {
        fill: #005368;
      }

      .cls-3 {
        fill: #ffc440;
      }

      .cls-3, .cls-4, .cls-5 {
        stroke: #fff;
        stroke-miterlimit: 10;
        stroke-width: .25px;
      }

      .cls-6 {
        fill: #c9c9c9;
      }

      .cls-7 {
        fill-rule: evenodd;
      }

      .cls-7, .cls-8 {
        fill: #cce2e8;
      }

      .cls-9 {
        opacity: .22;
      }

      .cls-10 {
        fill: #003845;
      }

      .cls-11 {
        fill: #006f8a;
      }

      .cls-4 {
        fill: #40c5ff;
      }

      .cls-5 {
        fill: #ff3f40;
      }
    </style>
  </defs>
  <g id="Calque_2-2" data-name="Calque 2">
    <g id="Background">
      <g>
        <g>
          <g class="cls-9">
            <g>
              <path class="cls-7" d="M41.9,46.3c-10.18,0-18.43-5.42-18.43-12.14s8.24-12.17,18.43-12.17,18.41,5.44,18.41,12.17-8.24,12.14-18.41,12.14Z"/>
              <path class="cls-8" d="M15.29,34.16c0-9.6,11.84-17.42,26.37-17.42s26.39,7.82,26.39,17.42-11.84,17.4-26.39,17.4-26.37-7.81-26.37-17.4ZM65.71,34.16c0-8.76-10.79-15.88-24.05-15.88s-24.02,7.12-24.02,15.88,10.78,15.87,24.02,15.87,24.05-7.12,24.05-15.87Z"/>
              <path class="cls-8" d="M6.34,34.16c0-13.02,16.04-23.61,35.75-23.61s35.75,10.59,35.75,23.61-16.05,23.59-35.75,23.59S6.34,47.16,6.34,34.16ZM76.7,34.16c0-12.59-15.54-22.83-34.6-22.83S7.5,21.57,7.5,34.16s15.52,22.82,34.6,22.82,34.6-10.23,34.6-22.82Z"/>
            </g>
          </g>
          <g>
            <rect class="cls-11" width="83.49" height="43.76" rx="10.86" ry="10.86"/>
            <path class="cls-1" d="M80.06,3.05c.77,1.49,1.08,6.14,1.08,7.93v16.02c0,5.97-1.68,13.53-18.13,13.46l-60.11-.21h-.03c2.92,3.19,6.75,3.47,7.98,3.52h61.77c5.97,0,10.86-4.89,10.86-10.86v-16.02c0-5.96.74-9.79-3.43-13.83h0Z"/>
          </g>
          <g>
            <g>
              <circle class="cls-2" cx="10" cy="7.4" r="2.8"/>
              <path class="cls-10" d="M11.12,9.85c-1.36,0-2.45-1.1-2.45-2.45s1.1-2.45,2.45-2.45c.09,0,.17.02.26.03-.41-.23-.88-.38-1.38-.38-1.55,0-2.8,1.26-2.8,2.8s1.26,2.8,2.8,2.8c.5,0,.97-.14,1.38-.38-.09,0-.17.03-.26.03Z"/>
            </g>
            <g>
              <circle class="cls-2" cx="10" cy="32.62" r="2.8"/>
              <path class="cls-10" d="M11.12,35.07c-1.36,0-2.45-1.1-2.45-2.45s1.1-2.45,2.45-2.45c.09,0,.17.02.26.03-.41-.23-.88-.38-1.38-.38-1.55,0-2.8,1.26-2.8,2.8s1.26,2.8,2.8,2.8c.5,0,.97-.14,1.38-.38-.09,0-.17.03-.26.03Z"/>
            </g>
            <g>
              <path class="cls-2" d="M76.27,7.4c0,1.55-1.26,2.8-2.8,2.8s-2.8-1.26-2.8-2.8,1.26-2.8,2.8-2.8,2.8,1.26,2.8,2.8Z"/>
              <path class="cls-10" d="M74.59,9.85c-1.36,0-2.45-1.1-2.45-2.45s1.1-2.45,2.45-2.45c.09,0,.17.02.26.03-.41-.23-.88-.38-1.38-.38-1.55,0-2.8,1.26-2.8,2.8s1.26,2.8,2.8,2.8c.5,0,.97-.14,1.38-.38-.09,0-.17.03-.26.03Z"/>
            </g>
            <g>
              <path class="cls-2" d="M76.27,32.62c0,1.55-1.26,2.8-2.8,2.8s-2.8-1.26-2.8-2.8,1.26-2.8,2.8-2.8,2.8,1.26,2.8,2.8Z"/>
              <path class="cls-10" d="M74.59,35.07c-1.36,0-2.45-1.1-2.45-2.45s1.1-2.45,2.45-2.45c.09,0,.17.02.26.03-.41-.23-.88-.38-1.38-.38-1.55,0-2.8,1.26-2.8,2.8s1.26,2.8,2.8,2.8c.5,0,.97-.14,1.38-.38-.09,0-.17.03-.26.03Z"/>
            </g>
          </g>
          <g>
            <circle class="cls-3" cx="41.4" cy="6.17" r="1.19"/>
            <circle class="cls-4" cx="37.79" cy="6.17" r="1.19"/>
            <circle class="cls-5" cx="45.05" cy="6.17" r="1.19"/>
          </g>
        </g>
        <g id="Logo_Typo_deforme" data-name="Logo Typo deforme">
          <path class="cls-6" d="M28.05,22.66v-3.65c0-.08.06-.14.14-.14h1.06v3.79s-1.2,0-1.2,0ZM30.6,22.66c-.06,0-.12-.05-.12-.12v-2.1c0-.19-.06-.33-.18-.44-.12-.11-.26-.16-.43-.16-.12,0-.23.02-.32.07s-.17.12-.22.21-.08.19-.08.32l-.46-.21c0-.3.07-.55.2-.77.13-.22.31-.38.53-.5.22-.12.47-.18.76-.18.26,0,.49.06.71.18.21.12.38.29.51.5.13.21.19.47.19.76v2.31c0,.06-.05.12-.12.12h-.97ZM33.01,22.66c-.06,0-.12-.05-.12-.12v-2.1c0-.19-.06-.33-.18-.44-.12-.11-.26-.16-.42-.16-.11,0-.22.02-.32.07-.1.05-.17.12-.22.21s-.08.19-.08.32l-.69-.09c.02-.32.09-.6.23-.83.14-.23.33-.41.57-.54.24-.12.51-.19.8-.19s.54.06.77.18.41.3.54.52.19.49.19.81v2.24c0,.06-.05.12-.12.12h-.97.02Z"/>
          <path class="cls-6" d="M36.43,22.74c-.34,0-.65-.09-.93-.26s-.49-.41-.65-.7-.24-.63-.24-1.01.08-.72.24-1.02.37-.53.65-.7c.27-.17.58-.25.93-.25.25,0,.48.05.69.15.21.1.37.24.5.41s.2.37.22.6v1.64c-.02.22-.09.42-.21.6-.13.17-.29.31-.5.41s-.44.15-.7.15v-.02ZM36.68,21.66c.25,0,.46-.08.61-.25s.23-.38.23-.65c0-.17-.03-.32-.1-.46-.07-.13-.17-.24-.3-.31-.13-.08-.28-.11-.44-.11s-.31.04-.43.11c-.13.08-.23.18-.3.32-.08.14-.11.29-.11.46s.04.32.11.46c.08.14.18.24.3.32.13.08.27.11.43.11ZM37.48,22.66v-1.02l.18-.93-.18-.91v-.93h1.18v3.79h-1.18Z"/>
          <path class="cls-6" d="M39.49,22.66v-3.62c0-.09.08-.17.17-.17h1.03v3.79s-1.2,0-1.2,0ZM40.69,20.59l-.5-.39c.1-.45.27-.79.5-1.04.24-.24.56-.37.97-.37.18,0,.34.03.48.08.14.05.26.14.36.25l-.71.9s-.11-.09-.19-.12-.17-.05-.27-.05c-.2,0-.36.06-.48.18s-.18.31-.18.55h.02Z"/>
          <path class="cls-6" d="M45.03,18.13v2.71c0,.06-.05.1-.1.1h-1.03c-.06,0-.1-.05-.1-.1v-2.71c0-.06.05-.1.1-.1h1.03c.06,0,.1.05.1.1Z"/>
          <path class="cls-6" d="M45.77,20.1h-2.71c-.06,0-.1-.05-.1-.1v-1.03c0-.06.05-.1.1-.1h2.71c.06,0,.1.05.1.1v1.03c0,.06-.05.1-.1.1Z"/>
          <path class="cls-6" d="M26.88,29.23l-1.42-5.26c-.02-.09.04-.17.13-.17h.76c.06,0,.12.04.13.1l1.08,4.23h-.41l.83-3.59c.03-.13.15-.22.28-.22h.75c.13,0,.25.09.28.22l.84,3.59h-.41l1.08-4.23c.02-.06.07-.1.13-.1h.75c.09,0,.16.09.13.17l-1.42,5.26c-.03.12-.14.2-.26.2h-.41c-.12,0-.23-.08-.26-.2l-1.23-4.63h.77l-1.22,4.63c-.03.12-.14.2-.26.2h-.41c-.12,0-.23-.08-.26-.2h.03Z"/>
          <path class="cls-6" d="M33.45,29.43c-.42,0-.79-.09-1.12-.26-.32-.17-.58-.41-.77-.72s-.28-.66-.28-1.05.09-.73.27-1.03c.18-.31.43-.55.74-.72.31-.18.67-.26,1.06-.26s.73.08,1.02.25c.29.16.52.39.69.69.17.29.26.63.26,1,0,.07,0,.15,0,.23,0,.08-.03.16-.05.26l-3.33.02v-.85l2.81-.02-.53.36c0-.22-.04-.4-.1-.55-.06-.15-.16-.26-.28-.34s-.28-.12-.45-.12c-.19,0-.36.05-.5.14s-.25.22-.33.37c-.08.16-.12.35-.12.57s.04.42.12.58c.08.16.2.29.35.38.15.09.33.13.54.13.19,0,.36-.03.51-.1.08-.03.15-.07.22-.12.12-.09.28-.09.38.02l.48.48c-.19.23-.42.4-.69.51-.27.11-.57.16-.9.16h0Z"/>
          <path class="cls-6" d="M37.52,29.42c-.35,0-.67-.09-.95-.27-.28-.18-.5-.42-.67-.72-.16-.3-.24-.64-.24-1.03s.08-.73.24-1.04.38-.54.66-.72.6-.26.95-.26c.26,0,.5.05.71.15.21.1.38.24.51.42.13.18.21.38.22.61v1.67c-.02.23-.09.43-.22.61s-.3.32-.51.42-.45.15-.71.15h0ZM37.78,28.31c.26,0,.47-.08.63-.26.16-.17.24-.39.24-.66,0-.18-.03-.33-.1-.47s-.17-.24-.3-.32c-.13-.08-.28-.12-.45-.12s-.31.04-.44.12c-.13.08-.23.18-.31.32s-.12.29-.12.47.04.33.12.47c.08.14.18.25.31.32.13.08.28.12.44.12h-.02ZM38.59,29.34v-1.04l.18-.95-.18-.93v-.95h1.2v3.87s-1.2,0-1.2,0Z"/>
          <path class="cls-6" d="M40.33,26.38v-.79c0-.07.06-.12.12-.12h2.72c.07,0,.12.06.12.12v.79c0,.07-.06.12-.12.12h-2.72c-.07,0-.12-.06-.12-.12ZM41.2,29.21v-4.63c0-.07.06-.12.12-.12h.98c.07,0,.12.06.12.12v4.63c0,.07-.06.12-.12.12h-.98c-.07,0-.12-.06-.12-.12Z"/>
          <path class="cls-6" d="M43.81,29.26v-7.63s.03-.08.08-.08h1.08s.08.03.08.08v7.63s-.03.08-.08.08h-1.08s-.08-.03-.08-.08ZM46.45,29.34s-.08-.03-.08-.08v-2.13c0-.2-.06-.36-.19-.48-.13-.12-.29-.19-.48-.19-.13,0-.24.03-.34.08-.1.06-.18.13-.24.24-.04.07-.07.16-.08.25,0,.05-.06.08-.11.05l-.32-.16s-.04-.04-.04-.07c0-.28.07-.53.19-.75.13-.23.31-.41.54-.53s.49-.19.78-.19.57.06.8.19c.23.12.41.3.53.52.13.22.19.48.19.77v2.4s-.03.08-.08.08h-1.08.01Z"/>
          <path class="cls-6" d="M50.3,29.43c-.42,0-.79-.09-1.12-.26-.32-.17-.58-.41-.77-.72s-.28-.66-.28-1.05.09-.73.27-1.03c.18-.31.43-.55.74-.72.31-.18.67-.26,1.06-.26s.73.08,1.02.25c.29.16.52.39.69.69.17.29.26.63.26,1,0,.07,0,.15,0,.23,0,.08-.03.16-.05.26l-3.33.02v-.85l2.81-.02-.53.36c0-.22-.04-.4-.1-.55-.06-.15-.16-.26-.28-.34s-.27-.12-.45-.12c-.19,0-.36.05-.5.14s-.25.22-.33.37c-.08.16-.12.35-.12.57s.04.42.12.58c.08.16.2.29.35.38.15.09.33.13.54.13.19,0,.36-.03.51-.1.08-.03.16-.08.23-.13.11-.08.27-.08.37.02l.49.49c-.19.23-.42.4-.69.51-.27.11-.57.16-.9.16h0Z"/>
          <path class="cls-6" d="M52.76,29.34v-3.68c0-.11.09-.19.19-.19h1.03v3.87h-1.23.01ZM53.98,27.22l-.51-.4c.1-.46.27-.81.51-1.06.24-.25.57-.37.99-.37.19,0,.35.03.49.08s.26.14.37.25l-.73.92s-.11-.1-.19-.13c-.08-.03-.17-.05-.27-.05-.21,0-.37.06-.49.19-.12.12-.18.31-.18.56h0Z"/>
          <path class="cls-6" d="M25.25,22.75c-.46,0-.85-.07-1.17-.22-.28-.12-.53-.3-.76-.54-.07-.07-.07-.19,0-.26l.54-.54c.07-.07.18-.07.25,0,.14.14.3.26.47.34.22.11.47.17.75.17.25,0,.45-.05.6-.14.14-.1.21-.23.21-.39,0-.15-.05-.27-.14-.36s-.21-.17-.37-.24c-.16-.07-.32-.13-.51-.19-.18-.06-.37-.13-.55-.21-.18-.08-.35-.18-.51-.3-.15-.12-.28-.27-.37-.46s-.14-.42-.14-.69c0-.34.08-.64.25-.88s.39-.43.69-.56c.3-.13.63-.19,1.01-.19s.74.07,1.06.2c.25.11.47.24.65.41.08.07.08.19,0,.27l-.55.55c-.07.07-.18.07-.25,0-.13-.11-.25-.2-.38-.26-.17-.08-.36-.12-.57-.12s-.38.04-.51.12c-.12.08-.19.2-.19.35,0,.14.05.25.14.33.09.09.22.16.37.22.15.06.32.12.51.19.18.06.37.13.55.21.18.08.35.19.5.32s.27.29.37.48.14.43.14.72c0,.53-.19.94-.56,1.24s-.89.45-1.56.45l.03-.02Z"/>
          <path class="cls-6" d="M48.72,19.98c.02-.24.23-.36.46-.29.45.16,1.02.46,1.47,1.05.69.93.63,1.98.49,2.6-.05.22-.28.34-.48.24-.43-.21-.94-.56-1.35-1.15-.61-.89-.65-1.85-.59-2.45Z"/>
          <g>
            <path class="cls-6" d="M48.82,19.76s.03-.03.05-.04c-.02,0-.03.02-.05.04Z"/>
            <path class="cls-6" d="M48.81,19.77s-.02.02-.03.04c0,0,.02-.03.03-.04Z"/>
            <path class="cls-6" d="M48.87,19.71s.04-.02.06-.03c-.02,0-.04.02-.06.03Z"/>
            <path class="cls-6" d="M48.43,22.65c.11-.16.21-.33.29-.5-.4-.82-.43-1.64-.37-2.22.02-.16.08-.29.17-.4-.51.18-1.13.53-1.62,1.18-.1.13-.18.27-.26.4-.04.07-.07.14-.1.2-.31.68-.34,1.37-.28,1.92.02.16.04.32.07.45,0,.03.02.05.03.08,0,0,0,0,0,.02,0,.02.02.03.03.05,0,0,0,0,0,.02,0,.02.03.03.05.05h0s.04.03.07.04h.02s.04,0,.05.02h.19s.06-.02.09-.03c.49-.24,1.08-.65,1.54-1.32v.04Z"/>
            <path class="cls-6" d="M48.72,19.97s0-.05.02-.08c0,.02,0,.05-.02.08Z"/>
            <path class="cls-6" d="M48.74,19.88s0-.03.02-.05c0,0,0,.03-.02.05Z"/>
            <path class="cls-6" d="M49,19.67s-.03,0-.05,0c.02,0,.03,0,.05,0Z"/>
          </g>
          <path class="cls-6" d="M54.13,19.98c.02-.24.23-.36.46-.29.45.16,1.02.46,1.47,1.05.69.93.63,1.98.49,2.6-.05.22-.28.34-.48.24-.43-.21-.94-.56-1.35-1.15-.61-.89-.65-1.85-.59-2.45Z"/>
          <g>
            <path class="cls-6" d="M53.84,22.65c.11-.16.21-.33.29-.5-.4-.82-.43-1.64-.37-2.22.02-.16.08-.29.17-.4-.11.04-.23.09-.35.15-.07.03-.14.07-.22.11-.36.2-.74.5-1.05.92-.1.13-.18.27-.26.4-.04.07-.07.14-.1.2-.12.27-.2.55-.25.81-.1.6-.04,1.16.04,1.56,0,.03.02.05.03.08,0,0,0,0,0,.02,0,.02.02.03.03.05,0,0,0,0,0,.02,0,.02.03.03.05.05h0s.04.03.07.04h.02s.04,0,.05.02h.19s.06-.02.09-.03c.31-.15.65-.37.98-.67.2-.18.39-.4.56-.65v.04Z"/>
            <path class="cls-6" d="M54.37,19.68s.03,0,.05,0c-.02,0-.03,0-.05,0Z"/>
            <path class="cls-6" d="M54.23,19.76s.03-.03.05-.04c-.02,0-.03.02-.05.04Z"/>
            <path class="cls-6" d="M54.19,19.81s.02-.03.03-.04c0,0-.02.02-.03.04Z"/>
            <path class="cls-6" d="M54.29,19.71s.04-.02.06-.03c-.02,0-.04.02-.06.03Z"/>
            <path class="cls-6" d="M54.13,19.98s0-.05.02-.08c0,.02,0,.05-.02.08Z"/>
            <path class="cls-6" d="M54.16,19.88s0-.03.02-.05c0,0,0,.03-.02.05Z"/>
          </g>
          <path class="cls-6" d="M46.93,20.1h.02c.51-.51,1.08-.79,1.51-.94.09-.03.18-.05.27-.05.2,0,.38.08.51.21.02,0,.04,0,.06,0,.36.12.84.35,1.27.76h1.8c.51-.51,1.08-.79,1.51-.94.09-.03.18-.05.27-.05.2,0,.38.08.51.21.02,0,.04,0,.06,0,.32.11.73.3,1.12.63v-.98c0-.07-.14-.12-.31-.12h-8.59c-.17,0-.31.05-.31.12v.99c0,.07.14.12.31.12v.02Z"/>
        </g>
      </g>
    </g>
  </g>
</svg>